<?xml version="1.0" encoding="utf-8"?>
<!-- Generator: Adobe Illustrator 25.4.1, SVG Export Plug-In . SVG Version: 6.00 Build 0)  -->
<svg version="1.1" id="Layer_1" xmlns="http://www.w3.org/2000/svg" xmlns:xlink="http://www.w3.org/1999/xlink" x="0px" y="0px"
	 viewBox="0 0 1080 1080" style="enable-background:new 0 0 1080 1080;" xml:space="preserve">
<style type="text/css">
	.st0{fill:#999999;}
</style>
<g>
	<path class="st0" d="M316.2,535.8c-0.9-0.4-1-1.6-0.2-2.2c6.9-5.2,10.9-12.5,10.9-19.9c0-9-3.2-16.2-9.3-20.8l0,0l0,0
		c-5.7-4.6-15.3-7.2-26.4-7.2h-36.9c-0.7,0-1.3,0.6-1.3,1.3v103.6c0,0.7,0.6,1.3,1.3,1.3H287c16.8,0,24.1-0.8,33.9-9.2
		c5.9-5,9.6-13.9,9.6-23.3C330.6,548.3,325.8,540.4,316.2,535.8z M288,568.2c-5.4,0-9.8-4.4-9.8-9.8c0-5.4,4.4-9.8,9.8-9.8
		c5.4,0,9.8,4.4,9.8,9.8C297.8,563.8,293.4,568.2,288,568.2z M288,528.3c-5.4,0-9.8-4.4-9.8-9.7c0-5.4,4.4-9.8,9.8-9.8
		c5.4,0,9.8,4.4,9.8,9.8C297.8,523.9,293.4,528.3,288,528.3z"/>
	<path class="st0" d="M422.2,512.5v77.9c0,0.7-0.6,1.3-1.3,1.3h-22.5c-0.7,0-1.3-0.6-1.3-1.3v-1.2c0-0.5-0.5-0.8-1-0.6
		c-6.4,3.6-13.7,5.6-21.2,5.6c-23.6,0-42.7-18.9-42.7-42.1c0-23.2,19.2-42.1,42.7-42.1c7.5,0,14.8,1.9,21.2,5.6c0.4,0.2,1-0.1,1-0.6
		v-2.5c0-0.7,0.6-1.3,1.3-1.3h22.5C421.6,511.2,422.2,511.8,422.2,512.5z M397.1,552.1c0-10.7-7.5-19.3-18.3-19.3
		c-10.8,0-19.6,8.7-19.6,19.3c0,10.7,8.8,19.3,19.6,19.3C389.6,571.4,397.1,562.8,397.1,552.1z"/>
	<path class="st0" d="M455.6,487.2v103.2c0,0.7-0.6,1.3-1.3,1.3h-23.8c-0.7,0-1.3-0.6-1.3-1.3V487.2c0-0.7,0.6-1.3,1.3-1.3h23.8
		C455,485.9,455.6,486.5,455.6,487.2z"/>
	<path class="st0" d="M549.7,512.5v77.9c0,0.7-0.6,1.3-1.3,1.3h-22.5c-0.7,0-1.3-0.6-1.3-1.3v-1.2c0-0.5-0.5-0.8-1-0.6
		c-6.4,3.6-13.7,5.6-21.2,5.6c-23.6,0-42.7-18.9-42.7-42.1c0-23.2,19.2-42.1,42.7-42.1c7.5,0,14.8,1.9,21.2,5.6c0.4,0.2,1-0.1,1-0.6
		v-2.5c0-0.7,0.6-1.3,1.3-1.3h22.5C549.1,511.2,549.7,511.8,549.7,512.5z M524.6,552.1c0-10.7-7.5-19.3-18.3-19.3
		c-10.8,0-19.6,8.7-19.6,19.3c0,10.7,8.8,19.3,19.6,19.3C517.1,571.4,524.6,562.8,524.6,552.1z"/>
	<path class="st0" d="M630.1,545.2v45.3c0,0.7-0.6,1.3-1.3,1.3h-24c-0.7,0-1.3-0.6-1.3-1.3v-44c0-3-0.2-6.4-1.4-9.2
		c-0.6-1.2-1.3-2.1-2.3-2.9c-1.5-1.2-3.4-1.8-5.9-1.8c-4.6,0-8.2,1.6-9.4,4.2c-1.3,2.8-1.3,6.6-1.3,9.6v44c0,0.7-0.6,1.3-1.3,1.3
		h-24c-0.7,0-1.3-0.6-1.3-1.3v-77.9c0-0.7,0.6-1.3,1.3-1.3h22.5c0.7,0,1.3,0.6,1.3,1.3v2.2c0,0.5,0.6,0.8,1,0.5
		c18.1-12.5,35.8,1.4,35.9,1.5c0.6,0.5,1.3,1,1.8,1.6l0,0C628.7,526.6,630.1,533.3,630.1,545.2z"/>
	<path class="st0" d="M712.4,574.2c-0.6,1-1.6,2.4-2.1,3c0,0,0,0,0,0c-0.8,1-1.6,2-2.5,3c0,0,0,0-0.1,0.1c-0.4,0.4-1,1-1.3,1.4
		c-0.1,0.1-0.1,0.1-0.2,0.2c-0.4,0.4-0.8,0.7-1.2,1.1c-0.2,0.2-0.5,0.4-0.7,0.6c-0.2,0.1-0.3,0.3-0.5,0.4
		c-6.2,5.2-13.8,8.6-21.9,9.7c-0.3,0-0.5,0.1-0.8,0.1c-0.3,0-0.7,0.1-1,0.1c-0.5,0-1,0.1-1.6,0.1c-0.2,0-0.4,0-0.6,0
		c-0.6,0-1.3,0-1.9,0c-23.6,0-42.7-18.9-42.7-42.1c0-23.2,19.2-42.1,42.7-42.1c0.6,0,1.3,0,1.9,0c0.2,0,0.4,0,0.6,0
		c0.5,0,1,0.1,1.6,0.1c0.3,0,0.7,0.1,1,0.1c0.3,0,0.5,0.1,0.8,0.1c8.1,1.1,15.7,4.5,21.9,9.7c0.2,0.1,0.3,0.3,0.5,0.4
		c0.2,0.2,0.5,0.4,0.7,0.6c0.4,0.4,0.8,0.7,1.2,1.1c0.1,0.1,0.1,0.1,0.2,0.2c0.4,0.4,0.8,0.8,1.2,1.2c0.1,0.1,0.1,0.1,0.2,0.2
		c0.9,1,1.7,2,2.5,3c0,0,0,0,0,0c0.8,1.1,1.6,2.2,2.3,3.3c0,0,0,0,0,0c0.3,0.5,0.1,1.1-0.4,1.4l-11.4,6.6l-6.6,3.8
		c-0.6,0.3-1.3,0.2-1.7-0.4c-3.7-5.7-8.9-8.8-15.2-8.8c-6,0-11.4,2.7-15,6.9c-3,3.3-4.9,7.6-4.9,12.4s1.9,9.1,4.9,12.4
		c3.6,4.2,9,6.9,15,6.9c6.2,0,11.4-3.1,15.2-8.8c0.4-0.6,1.1-0.7,1.7-0.4l17.7,10.2C712.6,572.8,712.8,573.6,712.4,574.2z"/>
	<path class="st0" d="M797.9,552.1c0,2.3-0.3,5.1-0.7,7.5c-0.1,0.6-0.6,1.1-1.3,1.1h-56.4c-1,0-1.6,1.1-1.1,2
		c3.5,5.9,9.7,9.5,16.5,9.5c5.8,0,11.3-2.6,15.1-7.5c0.3-0.4,0.8-0.6,1.2-0.5L793,568c0.8,0.1,1.3,1.1,0.9,1.8
		c-0.5,1-1.1,2.3-1.5,2.9l0,0l-0.4,0.6c-0.3,0.6-0.7,1.1-1.1,1.7c-0.5,0.8-1,1.4-1.4,2l-0.3,0.4l0,0c-0.2,0.2-0.3,0.4-0.5,0.6
		l-0.2,0.3c-0.3,0.4-0.6,0.7-0.9,1.1l-0.3,0.3c-0.5,0.5-0.9,1.1-1.5,1.6l-0.3,0.3c-0.3,0.3-0.7,0.7-1,1l-0.1,0.1
		c-0.4,0.4-0.8,0.7-1.2,1l-0.4,0.4l-0.5-0.4l0.4,0.5c-0.6,0.5-1.2,1-1.7,1.4l-0.5,0.4c-0.7,0.5-1.3,1-2,1.4l-0.2,0.1
		c-0.8,0.5-1.6,1-2.4,1.4l-0.2,0.1c-0.2,0.1-0.4,0.2-0.6,0.3l-0.1,0.1c-0.4,0.2-0.7,0.4-1,0.5l-0.2,0.1c-0.8,0.4-1.5,0.7-2.2,1
		l-0.1,0.1c-0.5,0.2-0.9,0.4-1.3,0.5l-0.5,0.2c-0.5,0.2-1.1,0.4-1.6,0.5l-0.1,0c-0.6,0.2-1.2,0.3-1.9,0.5l-0.5,0.1
		c-1.2,0.3-2.5,0.5-3.7,0.7l-0.5,0.1c-1.3,0.2-2.6,0.3-3.9,0.4l-0.5,0c-0.8,0-1.4,0-2,0c-0.6,0-1.2,0-2,0c-0.1,0-0.3,0-0.4,0l-0.1,0
		c-0.5,0-1-0.1-1.4-0.1l-0.1,0c-0.1,0-0.3,0-0.4,0c-0.7-0.1-1.3-0.2-1.9-0.2l0,0c0,0,0,0,0,0l-0.3-0.1c-0.5-0.1-1-0.2-1.6-0.3
		l-0.6-0.1c-0.5-0.1-0.9-0.2-1.4-0.3l-0.1,0c-0.1,0-0.3-0.1-0.4-0.1c-0.7-0.2-1.3-0.3-1.8-0.5c-0.6-0.2-1.2-0.4-1.8-0.6
		c-0.1-0.1-0.3-0.1-0.4-0.2l-0.1,0c-0.4-0.2-0.9-0.3-1.3-0.5l-0.1,0c-0.1-0.1-0.3-0.1-0.4-0.2c-0.6-0.2-1.1-0.5-1.7-0.8l-0.1,0
		c-0.5-0.2-1.1-0.5-1.6-0.8c-0.1-0.1-0.3-0.1-0.4-0.2l-0.1-0.1c-0.4-0.2-0.8-0.4-1.2-0.7l-0.5-0.3c-0.5-0.3-1-0.6-1.6-1
		c-5.1-3.4-9.5-7.9-12.7-13.1c-0.3-0.4-0.5-0.9-0.8-1.3l-0.1-0.2c-0.2-0.4-0.5-0.9-0.7-1.3l-0.1-0.2c-0.1-0.1-0.1-0.3-0.2-0.4
		c-0.8-1.6-1.5-3.4-2.1-5.2c-0.3-1-0.6-1.9-0.8-2.7c-0.2-0.7-0.3-1.3-0.5-2c-0.4-2.1-0.7-4.2-0.8-6.3c0-0.7-0.1-1.4-0.1-2.2
		c0-0.7,0-1.5,0.1-2.2c0.2-3.7,0.9-7.4,2.1-11c0.4-1.2,0.8-2.2,1.2-3.2c0.2-0.6,0.5-1.1,0.8-1.7c0.1-0.1,0.1-0.3,0.2-0.4l0.2-0.3
		c0.1-0.1,0.1-0.3,0.2-0.4c0.1-0.1,0.1-0.3,0.2-0.4l0.4-0.7c0.3-0.5,0.6-1.1,0.9-1.6c3.2-5.2,7.6-9.7,12.7-13.1c0.5-0.3,1-0.7,1.6-1
		l0.5-0.3c0.4-0.2,0.8-0.5,1.2-0.7l0.1-0.1c0.1-0.1,0.3-0.1,0.4-0.2c0.5-0.3,1.1-0.6,1.7-0.8c0.6-0.3,1.1-0.5,1.7-0.8
		c0.1-0.1,0.3-0.1,0.4-0.2l0.1,0c0.4-0.2,0.9-0.3,1.3-0.5l0.1,0c0.1-0.1,0.3-0.1,0.4-0.1c0.6-0.2,1.2-0.4,1.8-0.6
		c0.6-0.2,1.2-0.4,1.8-0.5c0.1,0,0.3-0.1,0.4-0.1l0.1,0c0.5-0.1,0.9-0.2,1.4-0.3l0.3-0.1c0.6-0.1,1.5-0.3,2-0.4l0.1,0c0,0,0,0,0,0
		l0,0c0.6-0.1,1.2-0.2,1.9-0.2c0.1,0,0.3,0,0.4,0l0.2,0c0.5,0,1-0.1,1.4-0.1l0.1,0c0.2,0,0.3,0,0.5,0c0.7,0,1.4,0,2,0
		c0.6,0,1.2,0,2,0l0.5,0c1.3,0.1,2.6,0.2,3.8,0.4l0.5,0.1c1.2,0.2,2.4,0.4,3.6,0.7l0.5,0.1c0.7,0.2,1.3,0.3,1.8,0.5l0.1,0
		c0.6,0.2,1.1,0.4,1.6,0.5c0.2,0.1,0.3,0.1,0.5,0.2c0.5,0.2,0.9,0.3,1.3,0.5l0.2,0.1c0.7,0.3,1.4,0.6,2.2,1l0.2,0.1
		c0.4,0.2,0.7,0.3,1,0.5l0.1,0.1l-0.3,0.6l0.3-0.5c0.2,0.1,0.4,0.2,0.6,0.3c0.7,0.4,1.9,1.1,2.6,1.5l0.1,0.1c0.7,0.5,1.4,1,2.1,1.5
		l0.1,0.1c0.1,0.1,0.3,0.2,0.4,0.3c0.6,0.4,1.2,0.9,1.7,1.4l0.3,0.3c0.5,0.4,0.9,0.8,1.3,1.2l0.1,0.1c0.3,0.3,0.7,0.7,1,1l0.3,0.3
		c0.5,0.6,1,1.1,1.5,1.6L787,525l0.5-0.4l0.2,0.3c0.3,0.3,0.6,0.7,0.8,1l0.3,0.3c0.3,0.4,0.6,0.8,1,1.3l0,0.1c0.3,0.3,0.5,0.7,0.7,1
		l0.5,0.7c0.2,0.3,0.4,0.6,0.6,0.9l0.8,1.3l0,0c1.6,2.8,2.9,5.7,3.8,8.7C797.3,544.1,797.9,548.1,797.9,552.1z M772.7,541.4
		c-1-5.9-7.9-10.6-16.6-10.6c-7.9,0-15.5,4.6-16.6,10.5c-0.1,0.8,0.5,1.5,1.3,1.5h30.6C772.3,543,772.9,542.2,772.7,541.4z"/>
	<circle class="st0" cx="817.4" cy="582" r="9.8"/>
</g>
</svg>
