<?xml version="1.0" encoding="utf-8"?>
<!-- Generator: Adobe Illustrator 25.4.1, SVG Export Plug-In . SVG Version: 6.00 Build 0)  -->
<svg version="1.1" id="Layer_1" xmlns="http://www.w3.org/2000/svg" xmlns:xlink="http://www.w3.org/1999/xlink" x="0px" y="0px"
	 viewBox="0 0 1080 1080" style="enable-background:new 0 0 1080 1080;" xml:space="preserve">
<style type="text/css">
	.st0{fill:#999999;}
</style>
<g>
	<path class="st0" d="M687.6,501.9c4.5,0.4,8.2,2.5,10.8,6.4c2.5,3.7,3.5,7.8,3.5,12.3c0,11.8,0,23.7,0,35.5c0,1.6,0.2,3.2,0.2,4.8
		h20.1c0.2-0.6,0.5-0.9,0.5-1.2c0-15.2,0.2-30.3,0-45.5c-0.1-6.4-2.5-12.2-6.6-17.4c-9.6-12.1-37.8-16.6-51.1-1.1
		c-4.3,5-7.8,10.6-11.7,16.1c-1.2-7.7-4.7-14.6-11.5-19.3c-9.4-6.6-20.1-8-31.1-5.6c-10.6,2.3-17.6,9.7-22.8,18.8
		c-1.1,2-2.1,4-3.2,6c-0.3-0.1-0.6-0.2-0.9-0.2V487h-20.5v73.7H584v-5.3c0-9.7,0-19.3,0-29c0-1.5,0-3.1,0.6-4.4
		c6.5-12.1,15.8-20.1,30.2-20.4c10-0.2,16.4,5.5,17.3,15.5c0.1,1.5,0.1,3,0.1,4.5v39.1h21.1v-5.2c0-9.5,0-19,0-28.5
		c0-1.5,0-3.1,0.6-4.4C660,510,671.7,500.3,687.6,501.9z"/>
	<path class="st0" d="M826.1,572.1H694.6c-0.8,0-1.7,0-2.5,0c-6.2,0.2-14.1,5.5-14.4,13.5c-0.2,5.6-0.2,11.3,0,17
		c0.2,4.5,2.7,7.7,6.3,10.3c3.4,2.5,7.3,3,11.4,3c37.5,0,75,0,112.5,0c1.8,0,3.7,0,5.5-0.4c7.1-1.4,12.5-7.1,12.7-14.1
		C826.3,591.8,826.1,582.3,826.1,572.1z M719.9,610c-4-1.2-6.9-3.8-7.1-8c-0.3-7.7-0.1-15.5-0.1-23.5h6.3c0,2,0.1,4,0.1,6.1
		c0,4.6,0,9.3,0,13.9c0.1,6.6,2.1,7.9,8.7,5.6c1.5,1.1,2.8,2.1,4.3,3.2C728.3,610.3,724.3,611.3,719.9,610z M762.8,609.7h-6.5v-7.6
		l-0.8-0.2c-0.5,0.9-1.1,1.7-1.7,2.6c-3.5,5.2-8.1,7-14.2,5.5c-3.9-1-6.5-3.9-6.5-7.2c0-3.5,2.2-6.4,6.4-7.1
		c3.2-0.6,6.6-0.3,9.9-0.3c1.7,0,3.4,0.4,5.1,0.5c-5.7-7-12.5-5.2-19.5-2.5V588c7-3,14-2.9,20.8,0.3c4.3,2.1,6.8,5.9,7,10.7
		C763,602.5,762.8,605.9,762.8,609.7z M791.8,608c-5.6,4.5-11.9,3.1-18.4-4.6c-0.1,2.3-0.2,4.2-0.3,6.4h-6v-31.5h6v15.2
		c2.3-2.2,3.9-4.1,5.9-5.5c2.4-1.7,5.3-2.3,8.1-1.2c2.4,1,5,2.1,6.6,4C798,595.8,796.9,603.8,791.8,608z"/>
	<path class="st0" d="M743.9,557c9.6,5.1,20,6.4,30.6,4.4c10.9-2.1,18.2-9.3,23.4-18.7c2.6-4.7,4.6-9.8,7.3-15.8v33.8H826
		c0-12.3,0.4-24.3-0.2-36.3c-0.4-7.9-3.6-15.1-8.7-21.4c-6-7.4-13.8-12-22.7-14.9c-14-4.6-28.2-4.2-42.5-1.7c-5,0.9-10,2.2-14.4,4.6
		v17.4c6.3-2.1,12.3-4.5,18.5-6.1c10.9-2.8,21.8-2.8,32.4,1.3c5.7,2.2,10.2,6,13.3,12c-2,0.2-3.6,0.6-5.2,0.5
		c-4.8-0.3-9.7-0.6-14.5-1.2c-10.6-1.2-21.2-2-31.8,0.6c-9.3,2.2-16.1,9.1-17.3,17.9C731.6,543.9,735.3,552.5,743.9,557z
		 M757.2,523.7c1.7-2.3,5.1-4,8-4.6c4.1-0.9,8.6-0.9,12.8-0.6c8.4,0.5,16.8,1.5,25.7,2.3c-2.6,7.6-6.4,14.9-12.5,20.8
		c-6.4,6.2-14,9.5-23.1,8.5c-5.9-0.6-11-3-13.2-9C752.6,535,753.3,528.8,757.2,523.7z"/>
	<path class="st0" d="M457.6,497.8c-9.4-12.9-32.4-14.8-43.3-8.8c-5.3,3-9.9,6.8-13.2,11.9c-2.2,3.4-4.3,6.9-7,11.4v-25.2h-20.7
		v73.7h20.8v-5.2c0-9.5,0-19,0-28.5c0-1.5-0.2-3.1,0.4-4.4c5.9-12.5,17.6-22.4,33.8-20.8c4.7,0.4,8.4,2.5,11,6.8
		c2.5,4,3.2,8.3,3.2,12.9c0,11.8,0,23.7,0,35.5c0,1.3,0.2,2.6,0.3,3.9h20.2c0-16.8,0.2-33.1-0.1-49.4
		C462.9,506.5,460.6,502,457.6,497.8z"/>
	<path class="st0" d="M501.5,538.2c13,3.4,25.5,1.8,37.3-4.3c16.2-8.4,18.8-27.2,6.4-39.1c-4.2-4-9.2-6.7-14.8-7.9
		c-17.7-3.5-33.8-0.2-47.2,12.5c-14,13.3-14.3,34.5-0.6,48.2c12.8,12.8,28.5,16.5,45.9,13.7c6.9-1.1,13.5-3.3,19.6-7.8
		c-4.8-4.2-9.3-8-13.7-11.8c-12.5,7.4-27.4,4.8-34.8-3.5c0.1-0.1,0.3-0.2,0.4-0.2C500.5,538.1,501,538.1,501.5,538.2z M494,528.3
		c-2-7.1,0.3-13.1,4.7-18.1c6.3-7.1,14.6-9.6,23.9-8.2c5.4,0.8,9.7,3.7,11.3,9.2c1.9,6.1,0.4,11.5-4.3,15.9c-3.3,3-7.2,4.7-11.6,5.4
		C509.6,533.9,501.6,532.6,494,528.3z"/>
	<path class="st0" d="M313.7,543c-10.7,5.1-21,4.7-30.5-2.7c-10.7-8.4-10.1-22.9-2.1-30.7c5.2-5.1,11.3-7.4,18.4-7.8
		c6-0.3,11.4,1.5,16.6,4.3c4.6-4,9-7.9,13.6-11.9c-17.9-12.2-45.3-11.1-61.8,2.5c-18.1,15-18.8,39.3-0.1,54.2
		c17.2,13.7,36.5,14.6,56.4,6c1.9-0.8,3.6-2,5.6-3.2c-5-4.3-9.4-8.1-13.8-12C315.1,542.2,314.4,542.6,313.7,543z"/>
	<rect x="338.3" y="487" class="st0" width="20.4" height="73.8"/>
	<path class="st0" d="M781.1,591.5c-3.7,1.1-6.7,3-7.8,7c1.7,3.7,4.4,6.2,8.6,6.8c2.6,0.4,4.5-0.5,5.9-2.8c1.6-2.8,1.4-6.5-0.5-8.9
		C785.7,591.5,783.7,590.7,781.1,591.5z"/>
	<path class="st0" d="M745.3,596.7c-2.6,0-4.5,0.9-5.2,3.7c-0.9,3.6,1.6,6.4,5.7,6.1c5.5-0.4,7.8-4.2,10-9.1
		c-3.6-0.2-6.5-0.4-9.5-0.6C746,596.7,745.6,596.7,745.3,596.7z"/>
</g>
</svg>
