<?xml version="1.0" encoding="utf-8"?>
<!-- Generator: Adobe Illustrator 25.4.1, SVG Export Plug-In . SVG Version: 6.00 Build 0)  -->
<svg version="1.1" id="Layer_1" xmlns="http://www.w3.org/2000/svg" xmlns:xlink="http://www.w3.org/1999/xlink" x="0px" y="0px"
	 viewBox="0 0 1080 1080" style="enable-background:new 0 0 1080 1080;" xml:space="preserve">
<style type="text/css">
	.st0{fill:#999999;}
</style>
<g>
	<path class="st0" d="M404.7,540.1c-0.2-13,9.6-18.5,19.4-23.9c-0.3-0.6-0.5-1.1-0.8-1.7h-4.6c-61.6,0-123.3,0-184.9,0
		c-3.1,0-6.3-0.1-9.4,0.4c-11.9,1.6-22.6,12.3-23.6,23.5c-1,11.2,7,21.5,19.8,25c5.1,1.4,10.3,2.2,15.7,2.2
		c56.3-0.1,112.6,0,168.9,0h18.3c0.3-0.7,0.7-1.3,1-2C414.2,558.9,405,552.8,404.7,540.1z M359.1,546.9h-92.7v-13.4h92.7V546.9z"/>
	<path class="st0" d="M424.4,577.9c-2.5-2.3-5.4-1.7-7.9-1.7c-60.1,0-120.2,0.1-180.2,0c-5.7,0-11.3,0.9-16.7,2.5
		c-18.3,5.1-25.1,26.9-11.9,39c6.4,5.9,13.9,9.9,23.5,9.8c61.9-0.3,123.9-0.1,185.9-0.2c2.3,0,4.8,0.5,7.2-1.3
		C399,613.5,396.8,591.2,424.4,577.9z M358.9,608.6h-92.7v-13.4h92.7V608.6z"/>
	<path class="st0" d="M423.5,453.5c-0.8-1.3-2.1-1.1-3.2-1.1c-62.8,0-125.6,0-188.4,0c-7.1,0-13.5,2.2-19.5,5.9
		c-14.8,9.3-15.3,28-1.2,38.2c6.5,4.8,13.6,7,21.8,7c61.3-0.2,122.5-0.1,183.7-0.2c2.3,0,4.9,1,7-1.1
		C399.8,488.6,396.3,470,423.5,453.5z M358.7,484.8H266v-13.4h92.7V484.8z"/>
	<path class="st0" d="M499.8,515c3.7-7.8,9.6-5.3,16.1-4.2c0,28.9,0,57.7,0,86.4c-6.2,2.3-6.2,2.3-13.6,0.8
		c-2.6-9.9,0.2-20.7-1.8-31.7c-11.1,4.6-21.9,8.9-33.5,4c-5.9-2.5-10.7-6.3-14-11.9c-7.3-12.6-5.4-29.8,4-40.1
		C465.6,508.8,483.4,504.2,499.8,515z M501.2,540.1c0.8-13.7-10.1-19-18.5-19c-10.9,0-18.8,9.1-18.6,20.4c0.2,10.9,7.5,18,18.4,18
		C494.6,559.6,501.3,552.6,501.2,540.1z"/>
	<path class="st0" d="M661.7,516.7c3-8.1,8.5-6.4,15.3-4.7c1.1,19.4,0.9,38.8,0.2,57.4c-5,2.5-8.4,1.9-11.8,1.5
		c-3.2-0.4-1.8-4.6-4.3-5.4c-20.2,9.9-35.8,8.2-45.3-4.9c-9.2-12.8-7.3-32.8,4.2-43.9C631,506.1,647.1,505.9,661.7,516.7z
		 M662.6,540.4c0.1-11.3-8.2-19.9-19.1-19.8c-10,0.1-17.7,8.2-17.9,18.9c-0.2,11.7,7.4,19.7,18.7,19.9
		C655.5,559.6,662.5,552.3,662.6,540.4z"/>
	<path class="st0" d="M552.4,511.7c0,11.9,0,22.8,0,33.7c0.1,9.5,2,13,7.5,14.1c7.5,1.5,13.6-2.1,16.9-10c2.1-5.1,1.7-10.4,1.8-15.7
		c0.2-5.9,0.2-11.8,0.4-17.8c0-1.2,0.7-2.4,1-3.5c3.9-2.7,7.8-1.9,12.7-0.8c0,19.3,0,38.6,0,57.7c-1.8,2-3.8,1.9-5.6,1.9
		c-1.5,0-3.1-0.2-3.5-0.3c-4.4-1.3-2.5-5.4-5.3-7.3c-5.9,6.1-12.7,10-21.4,9.6c-9.6-0.4-17.1-5.8-18.5-15.3
		c-2.4-15.1-1.1-30.3-0.6-45.3C542.6,509.7,546.7,510.8,552.4,511.7z"/>
	<path class="st0" d="M841.8,598.5c-5.4,1.1-9.1,1.6-13-0.4c-0.6-5.9,2.8-10.8,5.4-15.4c5.7-9.9,5.5-18.7-0.3-28.7
		c-6.5-11-11.4-22.9-16.8-34.5c-1-2.2-2.7-4.3-1.8-7.7c4-2,8.6-1,13.7-0.6c7.6,11.5,11.1,25.4,19.1,38.2
		c7.8-12.4,11.1-26.3,18.6-37.7c4.1-1.4,7.7-1.2,12.6,0.3C867.4,541.5,854.2,569.9,841.8,598.5z"/>
	<path class="st0" d="M699.8,461c4.5-1.1,8.4-1.4,13.2,0.5c0,35.7,0,71.7,0,107.6c-5.9,2.4-5.9,2.4-12.6,1.2
		C697.8,563.6,697.2,472.4,699.8,461z"/>
	<path class="st0" d="M790.2,485c3.3,8.5,0.9,16.6,2.7,23.6c4.4,3.4,9.4,0.7,13.4,3.3c2.2,2.6,1.3,5.7,0.8,8.5
		c-4,3.3-8.9,0.7-13.9,3.5c-2.7,14.5,0.8,30.2-1.9,45.1c-4.4,3-8.3,2.3-13.6,1c-1.5-15.1,0.1-30.6-0.8-45.1c-3.2-3.4-7-1.8-9.8-3.9
		c-1.8-2.6-1.5-5.6-0.3-8.4c2.4-2.8,6.2-1.2,9.3-3.4c2.6-7-0.4-15,1.9-22.6C781.8,483.7,785.8,485,790.2,485z"/>
	<path class="st0" d="M748.6,571.2c-4,0-6.2,0.1-8.3,0c-1.2-0.1-2.4-0.5-5.2-1.2c-0.8-19.2-0.9-38.6,0.1-57.6
		c5.3-2.1,9.1-2.3,13.5-0.2C748.6,531.5,748.6,550.9,748.6,571.2z"/>
	<path class="st0" d="M742.9,497.9c-5,0.1-8.7-3.1-8.7-7.5c0-4.3,4-7.9,8.6-7.7c4.6,0.2,7.6,2.6,8.2,7.2
		C751.7,494.2,747.8,497.8,742.9,497.9z"/>
</g>
</svg>
