<?xml version="1.0" encoding="utf-8"?>
<!-- Generator: Adobe Illustrator 25.4.1, SVG Export Plug-In . SVG Version: 6.00 Build 0)  -->
<svg version="1.1" id="Layer_1" xmlns="http://www.w3.org/2000/svg" xmlns:xlink="http://www.w3.org/1999/xlink" x="0px" y="0px"
	 viewBox="0 0 1080 1080" style="enable-background:new 0 0 1080 1080;" xml:space="preserve">
<style type="text/css">
	.st0{fill:#999999;}
</style>
<g>
	<path class="st0" d="M489,465.3c0.3,0.4,0.8,0.7,1.3,1c0.5,0.2,1,0.3,1.5,0.2c0.9-0.1,1.6-0.6,2-1.4c0.3-0.6,0.5-1.3,0.6-2
		c0.1-0.7,0-1.4-0.2-2.2c-0.2-0.7-0.6-1.3-1.3-1.7c-0.7-0.4-1.4-0.5-2.2-0.2c-0.5,0.2-1,0.5-1.5,1c-0.4,0.5-0.7,1-0.9,1.6
		c-0.1,0.3-0.2,0.6-0.2,0.8c0,0.9,0.1,1.7,0.5,2.3C488.8,465,488.9,465.2,489,465.3z"/>
	<path class="st0" d="M524.3,456.5c0.4,0.2,0.9,0.2,1.5,0.1c0.6-0.1,1.1-0.2,1.6-0.3c0.5-0.1,0.9-0.3,1.3-0.5
		c0.2-0.1,0.4-0.3,0.6-0.4c0.3-0.3,0.5-0.6,0.5-0.9c0-0.2-0.1-0.4-0.3-0.6c-0.2-0.1-0.4-0.3-0.7-0.4c-0.6-0.2-1.3-0.3-2.1-0.3
		c-1.2,0.1-2.2,0.5-2.9,1.2c-0.4,0.4-0.6,0.8-0.5,1.3C523.5,456,523.8,456.3,524.3,456.5z"/>
	<path class="st0" d="M511.6,499.1c-5.9,4.1-0.5,11.1,5.5,15.5c5.9,4.1,10.7,6.8,15.2,13.7C530.9,510.2,525.2,489.8,511.6,499.1z"/>
	<path class="st0" d="M563.9,514.6c6.1-4.3,11.8-11.4,5.5-15.2c-13.7-9.8-19.3,10.7-20.7,29.1C553,521.4,558.2,518.7,563.9,514.6z"
		/>
	<path class="st0" d="M583.7,462.1c0.2,0.5,0.4,1,0.8,1.4c0.4,0.4,0.8,0.7,1.3,0.8c0.9,0.3,1.6,0.1,2.3-0.5c0.5-0.4,1-1,1.3-1.6
		c0.4-0.6,0.6-1.3,0.7-2.1c0.1-0.8-0.1-1.5-0.5-2.1c-0.5-0.6-1.1-1-1.9-1c-0.6,0-1.2,0.1-1.7,0.4c-0.6,0.3-1.1,0.7-1.5,1.1
		c-0.2,0.2-0.4,0.5-0.5,0.7c-0.4,0.8-0.5,1.6-0.5,2.3C583.7,461.8,583.7,462,583.7,462.1z"/>
	<path class="st0" d="M621.2,468.4c0.6,0.2,1.1,0.3,1.6,0.3c0.5,0.1,1,0.1,1.4,0c0.3,0,0.5-0.1,0.8-0.2c0.4-0.2,0.7-0.4,0.8-0.6
		c0.1-0.2,0.1-0.4-0.1-0.7c-0.1-0.2-0.2-0.4-0.5-0.7c-0.4-0.5-1.1-0.8-1.8-1.1c-1.2-0.4-2.2-0.4-3.2,0c-0.5,0.2-0.8,0.5-0.9,1
		c-0.1,0.4,0.1,0.8,0.5,1.2C620.2,468,620.7,468.2,621.2,468.4z"/>
	<path class="st0" d="M634.3,445.7c-24.1-24.1-57.5-39.1-94.3-39.1c-36.8,0-70.2,14.9-94.3,39.1c-24.1,24.1-39.1,57.5-39.1,94.3
		c0,73.7,59.7,133.4,133.4,133.4c36.8,0,70.2-14.9,94.3-39.1c24.1-24.1,39.1-57.5,39.1-94.3S658.5,469.8,634.3,445.7z M540,666.9
		c-69.9,0-126.9-56.9-126.9-126.9S470.1,413.1,540,413.1c70,0,126.9,56.9,126.9,126.9S610,666.9,540,666.9z"/>
	<path class="st0" d="M540,417.8c-67.4,0-122.2,54.8-122.2,122.2S472.6,662.2,540,662.2c67.4,0,122.2-54.8,122.2-122.2
		S607.4,417.8,540,417.8z M517.1,457.3c0-1,0.1-1.9,0.4-2.7c0.5-1.4,1.3-2.6,2.5-3.6c0,0,0,0,0.1,0c0.1-0.1,0.2-0.2,0.3-0.3v0
		c0.8-0.6,1.8-1.1,2.8-1.4v0c0.2,0,0.3-0.1,0.4-0.1c0,0,0,0,0.1,0c1.9-0.5,3.8-0.6,5.6-0.2c1.9,0.4,3.3,1.2,4.2,2.3
		c0.9,1.1,1.2,2.6,1.1,4.3c-0.2,1.9-2.1,3.2-5.8,4c-0.2,0.1-0.6,0.1-1.1,0.2c-1.2,0.2-2.1,0.4-2.7,0.7c-0.3,0.2-0.6,0.4-0.6,0.6
		c-0.1,0.2,0,0.5,0.1,0.8c0.1,0.2,0.2,0.4,0.4,0.5c0.3,0.3,0.8,0.4,1.2,0.6c1,0.2,2,0.2,3,0c1-0.2,1.9-0.5,2.8-1
		c0.1,0,0.2-0.1,0.3-0.1c0,0,0,0,0,0h0.1c0.2-0.1,0.2-0.1,0.4-0.1c0,0,0,0,0,0c1-0.2,1.8,0,2.2,0.7c0.5,0.8,0.5,1.5,0.1,2.3
		c-0.1,0.1-0.1,0.2-0.2,0.3c0,0,0,0,0,0.1c0,0,0,0,0,0c-0.7,0.9-1.7,1.5-3.1,1.9c-1,0.3-2,0.5-3.1,0.5c-2.4,0.2-4.5-0.2-6.4-1.1
		c-1.1-0.5-2-1.2-2.7-2c-0.8-0.8-1.3-1.8-1.7-2.9c-0.1-0.3-0.2-0.7-0.3-1.1c0-0.1,0-0.2-0.1-0.3c0,0,0-0.1,0-0.1
		c-0.2-0.7-0.2-1.4-0.3-2.1c0-0.1,0-0.1,0-0.1C517.1,457.5,517.1,457.5,517.1,457.3L517.1,457.3z M501.9,448.4
		c0.1-0.5,0.4-1,0.8-1.3c0.7-0.5,1.4-0.8,2.3-0.7c0,0,0,0,0.1,0c0.3,0,0.4,0,0.7,0c0,0-0.1,0-0.1,0.1c0.2,0,0.3,0.1,0.4,0.1
		c0.3,0.1,0.5,0.3,0.8,0.4c0-0.1,0-0.1,0-0.2c0.2,0.2,0.3,0.3,0.5,0.6c0,0,0,0,0,0.1c0.2,0.3,0.5,0.9,0.7,1.7c0,0,0,0,0.1,0.1
		c0.1,0.3,0.2,0.6,0.4,0.8c0.2,0.2,0.4,0.3,0.7,0.4c0.3,0.1,0.6,0.1,0.8,0.1c0.2,0,0.5,0,1,0c0.9,0,1.6,0,2.1,0.2
		c0.5,0.2,0.9,0.5,1.2,1c0.3,0.5,0.5,1,0.4,1.5c0,0.3-0.1,0.7-0.3,0.9c-0.1,0.2-0.4,0.4-0.6,0.6c-0.3,0.1-0.5,0.2-0.8,0.3
		c-0.2,0.1-0.5,0.1-0.8,0.2c-0.1,0-0.2,0-0.3,0c-0.6,0.1-1,0.2-1.2,0.3c-0.7,0.3-1.1,0.8-1.3,1.5c-0.2,0.7,0,2,0.4,3.7
		c0.1,0.5,0.2,0.9,0.3,1.1c0.1,0.7,0.5,1.2,0.9,1.5c0.5,0.3,1.3,0.4,2.2,0.2c0.2,0,0.3-0.1,0.5-0.1c0.6-0.2,1.1-0.1,1.5,0.1
		c0.4,0.3,0.7,0.7,0.8,1.3c0,0.1,0,0.1,0,0.2c0,0.1,0,0.1,0,0.2c0,0,0,0,0,0c0.1,0.6-0.1,1-0.3,1.4c-0.6,0.9-1.7,1.5-3.4,1.8
		c-0.2,0-0.4,0.1-0.7,0.1c-2.1,0.3-3.8,0.1-5.1-0.7c-0.2-0.1-0.3-0.2-0.5-0.3h0c-0.2-0.2-0.4-0.3-0.6-0.5c-0.1-0.1-0.1-0.2-0.2-0.3
		v0c-0.1-0.2-0.2-0.3-0.3-0.5h0c0,0,0,0,0-0.1c-0.5-0.8-0.9-2-1.1-3.7c-0.2-1-0.4-2.1-0.6-3.5c-0.1-0.8-0.2-1.2-0.3-2
		c-0.1-0.3-0.1-0.8-0.2-1.4c-0.1-0.9-0.3-1.7-0.4-2.2c-0.1-0.7-0.2-1.4-0.3-1.9c0-0.2-0.1-0.2-0.1-0.4c-0.1-0.6-0.2-1.1-0.2-1.4
		C501.6,449.4,501.7,449,501.9,448.4z M481.6,462.5c0.2-1.6,0.8-3,1.7-4.4c0.9-1.4,2-2.5,3.5-3.3c0.1,0,0.1,0,0.1-0.1
		c0.1-0.1,0.1-0.1,0.2-0.1c0.7-0.4,1.4-0.7,2.2-0.9c0.1,0,0.2,0,0.2-0.1c0.1,0,0.1,0,0.1,0c1.6-0.4,3.3-0.3,4.9,0.1
		c0.8,0.2,1.5,0.5,2.2,0.9c0.1,0.1,0.3,0.2,0.5,0.3c0,0,0.1,0,0.1,0.1c0.1,0.1,0.1,0.1,0.2,0.2c1,0.8,1.9,1.8,2.5,2.9
		c0,0.1,0.1,0.1,0.1,0.2c0,0,0,0.1,0.1,0.1c0.4,0.9,0.6,1.7,0.7,2.5c0,0.3,0,0.7,0,1c-0.1,1.2-0.5,2.5-1.1,3.7c0,0,0,0.1-0.1,0.1
		c0,0.1,0,0.1-0.1,0.2c-0.4,0.7-0.8,1.3-1.3,2c0,0,0,0.1-0.1,0.1c-0.1,0.1-0.1,0.1-0.1,0.2c-1.7,2.2-3.8,3.5-6.1,4
		c-1,0.2-1.9,0.3-2.9,0.2c-1-0.1-2-0.3-2.9-0.8c-0.1-0.1-0.2-0.1-0.3-0.2c-1.6-0.8-2.8-2-3.6-3.6
		C481.7,466.2,481.4,464.4,481.6,462.5z M455.1,461.4c0.1-0.4,0.5-0.8,1.1-1.2c0.4-0.3,1-0.6,1.5-0.8c0,0,0,0,0.1,0
		c0.2-0.1,0.3-0.1,0.5-0.2c0,0,0,0,0,0c0.2-0.1,0.3-0.1,0.5-0.2c1.1-0.3,2-0.4,2.8-0.2c0,0,0,0,0,0c0.2,0.1,0.2,0.1,0.4,0.2
		c0,0,0,0,0,0c0,0,0.1,0,0.1,0c0,0,0.1,0,0.1,0c0,0,0,0,0,0c0.6,0.2,1.2,0.7,2,1.4c0.1,0.1,0.2,0.2,0.3,0.3c0.3,0.3,0.8,0.7,1.4,1.3
		c0.5,0.4,0.9,0.8,1.1,1l0.2,0.2c0.2,0.2,0.3,0.3,0.5,0.5c0.3,0.3,0.6,0.5,0.9,0.8c0.1,0.1,0.2,0.2,0.3,0.3c0,0,0,0,0,0
		c0,0,0,0,0,0.1c1.1,1,2.3,2.2,3.6,3.6c0,0,0,0,0,0l0-0.1c0.1-0.5,0-1.2-0.3-2.2c-0.1-0.2-0.1-0.3-0.1-0.4c-0.3-1.1-0.7-2.1-1-3.2
		c-0.7-2.2-1.2-4-1.4-5.4c-0.1-0.7,0-1.2,0.2-1.5c0.2-0.2,0.5-0.5,1-0.7c0.2-0.1,0.3-0.1,0.5-0.2c0.5-0.2,1-0.3,1.4-0.4
		c0.1,0,0.2-0.1,0.3-0.1c0,0,0,0,0,0h0.5c0,0,0.1,0,0.1,0c0.3,0,0.5,0,0.7,0.1c0.7,0.2,1.2,0.7,1.6,1.6c0.2,0.6,0.5,1.5,0.8,2.7
		c0.1,0.6,0.2,1.1,0.3,1.4c0.6,2,0.8,3,1.4,5c0,0.1,0.1,0.2,0.2,0.4c0,0,0,0.1,0,0.1c0,0,0,0,0,0.1c0.1,0.4,0.3,1,0.5,1.8
		c0,0.1,0,0.2,0.1,0.3c0,0,0,0,0,0c0,0,0,0,0,0.1c0.7,2.4,1.2,4.4,1.3,5.8c0,0.6,0,1-0.1,1.3c-0.1,0.3-0.3,0.5-0.6,0.8
		c-0.2,0.2-0.5,0.3-0.8,0.5c-0.4,0.2-0.8,0.3-1.1,0.4c-0.7,0.2-1.3,0.3-1.9,0.3c-1.4,0-2.7-0.7-4-2.1c-1.6-1.6-4-4-7.4-7
		c-0.1-0.1-0.2-0.1-0.3-0.2c-0.2-0.2-0.3-0.3-0.5-0.3c-0.2-0.1-0.3,0-0.3,0.1c0,0.1-0.1,0.2,0,0.4c0.1,0.5,0.4,1.2,0.8,2.2
		c0.2,0.6,0.4,1,0.5,1.3c0.2,0.4,0.4,1,0.7,1.8c0,0,0,0.1,0,0.1c0.5,1.4,0.8,2.4,1.1,3.2c0.2,0.5,0.3,0.9,0.4,1.2
		c0.1,0.4,0.2,0.7,0.3,1.1c0,0.4-0.1,0.7-0.3,1c-0.2,0.3-0.6,0.7-1.1,0.9c-0.6,0.3-1.3,0.5-2,0.6c-0.6,0.1-1,0-1.4-0.1
		c-0.6-0.2-1.1-0.9-1.5-2c-0.5-1.4-1.3-3.5-2.3-6.3c-0.5-1.2-0.8-2.2-1.1-3c-0.1-0.3-0.3-0.8-0.5-1.3c0,0,0-0.1-0.1-0.1
		c0-0.1,0-0.1-0.1-0.2c0-0.1-0.1-0.2-0.1-0.3c-0.1-0.2-0.1-0.2-0.1-0.4c-0.2-0.5-0.3-0.8-0.4-1c-0.1-0.2-0.2-0.5-0.3-0.9
		c-0.3-0.8-0.5-1.3-0.7-1.8c0-0.1-0.1-0.2-0.1-0.3C455.1,462.6,455,461.9,455.1,461.4z M434.2,515.2c6.6-4.8,5.9-16.1,5.9-16.1
		c12.3,25.7,21.4,20.7,32.3,20.2c32.5-1.8,52.9,19.8,53.5,20.5c-22.1-10.9-38.9-10-49.6-8.4C444,536.2,434.2,515.2,434.2,515.2z
		 M537.5,650.7l-68.7-17.5v-61.2l68.7,5.2V650.7z M468.8,565.8l-16.8-26.4l74.6,6.6l10.9,25.3L468.8,565.8z M502.7,515.9
		c-9.6-10-0.5-28.5,16.8-25.3c17.3,3.2,18,31.6,18.2,51.2C525.7,524.8,513.4,527.3,502.7,515.9z M649.9,529.3
		c0,0-23.2-17.3-48.2-4.3c-9.8,4.8-29.4,15.9-44.6,14.6c13.4-8,20.9-11.8,44.1-26.9c11.4-5.5,28.5-9.6,44.6-0.7
		C645.8,512.1,643.6,523,649.9,529.3z M612.7,466c0-0.1,0-0.1,0.1-0.2c0,0,0,0,0,0c0.4-0.9,0.9-1.7,1.4-2.4c1-1.1,2.2-1.9,3.7-2.3
		c0,0,0.1,0,0.1,0c0.2-0.1,0.2-0.1,0.4-0.1v0c1-0.2,2.1-0.3,3.2-0.2c0,0,0,0,0,0c0.2,0,0.3,0,0.4,0.1h0.1c1.9,0.2,3.7,0.9,5.3,2
		c1.6,1.1,2.6,2.4,3,3.8c0.4,1.4,0.2,2.9-0.7,4.4c-0.9,1.7-3.2,2.1-7,1.3c-0.2,0-0.6-0.1-1.1-0.2c-1.2-0.3-2.2-0.5-2.8-0.4
		c-0.4,0-0.7,0.1-0.8,0.3c-0.2,0.2-0.2,0.4-0.2,0.7c0,0.2,0.1,0.4,0.2,0.7c0.2,0.4,0.5,0.7,0.9,1c0.9,0.6,1.8,0.9,2.8,1.1
		c1,0.2,2,0.3,3,0.2c0.1,0,0.2,0,0.4,0c0,0,0,0,0,0c0,0,0,0,0.1,0c0.2,0,0.3,0,0.4,0c0,0,0,0,0,0c1.1,0.2,1.7,0.7,1.8,1.5
		c0.1,0.9-0.1,1.6-0.8,2.1c-0.1,0.1-0.2,0.1-0.3,0.2c0,0,0,0-0.1,0c0,0,0,0,0,0c-1,0.6-2.2,0.8-3.7,0.6c-1.1-0.1-2.1-0.4-3.1-0.7
		c-2.3-0.8-4.2-2-5.5-3.5c-0.8-0.9-1.4-1.9-1.8-2.9c-0.4-1.1-0.5-2.2-0.5-3.3c0-0.3,0.1-0.7,0.1-1.2c0-0.1,0-0.2,0-0.3
		c0-0.1,0-0.1,0-0.1c0.1-0.7,0.3-1.4,0.6-2.1C612.7,466,612.7,466,612.7,466z M598.5,465.5c0.2-0.9,0.5-2.1,0.8-3.5
		c0.2-0.8,0.3-1.1,0.4-1.9c0.1-0.3,0.2-0.8,0.3-1.4c0.2-0.9,0.4-1.7,0.5-2.2c0.1-0.7,0.3-1.3,0.4-1.9c0-0.2,0-0.2,0.1-0.4
		c0.1-0.6,0.2-1,0.4-1.4c0.1-0.4,0.3-0.8,0.7-1.2c0.3-0.4,0.8-0.7,1.3-0.9c0.8-0.2,1.6-0.2,2.4,0.2c0,0,0.1,0,0.1,0
		c0.3,0.1,0.4,0.2,0.6,0.3c0,0-0.1,0-0.1,0c0.2,0.1,0.3,0.2,0.4,0.3c0.2,0.2,0.4,0.4,0.5,0.7c0-0.1,0-0.1,0-0.2
		c0.1,0.3,0.1,0.4,0.2,0.7c0,0,0,0,0,0.1c0.1,0.4,0.1,1,0,1.8c0,0,0,0.1,0,0.1c0,0.3,0,0.7,0.1,0.9c0.1,0.2,0.2,0.5,0.5,0.7
		s0.5,0.3,0.7,0.4c0.2,0.1,0.5,0.2,0.9,0.4c0.9,0.3,1.5,0.7,1.8,1c0.4,0.3,0.6,0.8,0.7,1.3c0.1,0.6,0.1,1.1-0.2,1.6
		c-0.2,0.3-0.4,0.5-0.6,0.7c-0.2,0.2-0.5,0.2-0.8,0.3c-0.3,0-0.6,0-0.8,0s-0.5-0.1-0.8-0.2c-0.1,0-0.2,0-0.3-0.1
		c-0.6-0.1-1-0.2-1.3-0.2c-0.8,0-1.4,0.3-1.8,0.9c-0.4,0.6-0.8,1.8-1.1,3.6c-0.1,0.5-0.2,0.9-0.2,1.1c-0.1,0.7,0,1.3,0.3,1.7
		c0.4,0.5,1,0.9,2,1.1c0.2,0,0.4,0,0.5,0.1c0.6,0,1.1,0.3,1.4,0.7c0.3,0.4,0.4,0.9,0.3,1.5c0,0.1,0,0.1-0.1,0.2c0,0.1,0,0.1,0,0.2
		c0,0,0,0,0,0c-0.2,0.5-0.5,0.9-0.9,1.2c-0.9,0.6-2.2,0.7-3.8,0.4c-0.2,0-0.5-0.1-0.7-0.1c-2.1-0.5-3.5-1.4-4.4-2.6
		c-0.1-0.2-0.2-0.3-0.3-0.5c0,0,0,0,0,0c-0.1-0.2-0.2-0.5-0.3-0.7c0-0.1-0.1-0.2-0.1-0.3c0,0,0,0,0,0c0-0.2,0-0.3-0.1-0.5
		c0,0,0,0,0,0c0,0,0,0,0-0.1C598,468.5,598.1,467.2,598.5,465.5z M578.1,456.7c0.8-1.4,1.9-2.5,3.2-3.4c1.4-0.9,2.8-1.5,4.4-1.7
		c0.1,0,0.1,0,0.2,0c0.1,0,0.1,0,0.3,0c0.8-0.1,1.6-0.1,2.4,0.1c0.1,0,0.2,0,0.2,0c0.1,0,0.1,0,0.1,0c1.7,0.3,3.2,1,4.5,2
		c0.7,0.5,1.2,1.1,1.7,1.7c0.1,0.1,0.2,0.3,0.3,0.5c0,0.1,0.1,0.1,0.1,0.1c0.1,0.1,0.1,0.1,0.1,0.2c0.7,1.1,1.1,2.4,1.2,3.6
		c0,0.1,0,0.2,0,0.3c0,0,0,0.1,0,0.1c0,1-0.1,1.8-0.3,2.6c-0.1,0.3-0.2,0.6-0.4,0.9c-0.6,1.1-1.4,2.1-2.4,3c-0.1,0-0.1,0.1-0.1,0.1
		c-0.1,0-0.1,0.1-0.1,0.1c-0.6,0.5-1.2,0.9-1.9,1.3c0,0-0.1,0-0.1,0.1c-0.1,0-0.1,0-0.2,0.1c-2.4,1.3-4.8,1.8-7.2,1.4
		c-1-0.2-1.9-0.5-2.7-1c-0.9-0.5-1.7-1.1-2.4-1.8c-0.1-0.1-0.1-0.2-0.2-0.3c-1.1-1.3-1.8-2.9-1.9-4.7
		C576.7,460.1,577.1,458.3,578.1,456.7z M548.2,464.4L548.2,464.4c0-0.3,0-0.5,0.1-0.8c0.1-1.5,0.2-4,0.6-7.3c0.1-1.3,0.2-2.3,0.3-3
		c0-0.4,0.1-0.6,0.1-1c0.2-1.6,0.3-2.8,0.4-3.5c0-0.4,0.1-0.7,0.1-1c0-0.2,0.1-0.5,0.2-0.9c0.1-0.3,0.2-0.6,0.4-0.9
		c0.2-0.3,0.4-0.5,0.6-0.7c0.7-0.6,1.8-0.8,3.1-0.8c0.4,0,0.7,0,1.1,0.1h0c0.5,0.1,0.8,0.1,1.3,0.2c-0.1,0-0.2,0-0.3,0
		c0.2,0,0.4,0.1,0.5,0.2c-0.1-0.2-0.2-0.2-0.3-0.4c0.5,0.3,0.7,0.5,1.2,0.9c0,0,0.1,0,0.1,0.1c0.8,0.6,1.3,1.5,1.7,2.7
		c0.1,0.5,0.3,1.1,0.6,2.1c0.6,2.2,1.1,3.8,1.5,4.8c0.1,0.3,0.2,0.5,0.3,0.6c0.1,0.1,0.1,0.1,0.2,0.1c0.1,0,0.2-0.1,0.2-0.2
		c0.4-0.6,0.8-1.6,1.3-2.9c0.3-0.8,0.6-1.4,0.8-1.8c0.5-1.1,1-2.1,1.4-3c0,0,0,0-0.1,0c0-0.1,0.1-0.2,0.2-0.3
		c0.4-0.8,0.8-1.2,1.3-1.4c0.9-0.4,2-0.6,3.1-0.5c2.2,0.2,3.5,0.9,3.9,2c0,0,0,0,0,0c0.1,0.2,0.1,0.3,0.2,0.5c0,0,0,0,0,0
		c0.1,0.4,0.1,1,0.1,1.8c0,0.4,0,0.6,0,1.1c0,0.1,0,0.1,0,0.1c0,2.8-0.1,5.3-0.2,7.3c0,0,0,0,0,0.1c0,0.2,0,0.2,0,0.4
		c-0.1,0.9-0.1,1.8-0.1,2.7c0,0.1,0,0.2,0,0.4c0,0,0,0,0,0.1c-0.1,1.4-0.2,2.8-0.2,4c-0.1,0.9-0.3,1.6-0.6,1.9
		c-0.4,0.4-0.9,0.6-1.7,0.6c-0.2,0-0.5,0-0.7,0c-0.7-0.1-1.3-0.3-1.9-0.6c-0.8-0.4-1.2-1.2-1.2-2.2c0-1.2,0.2-3,0.4-5.4
		c0.2-2.8,0.4-4.9,0.4-6.3c0-0.1,0-0.2-0.1-0.2h0c0,0,0,0,0,0c-0.5,0.3-1,0.9-1.4,1.6c-0.1,0.2-0.1,0.4-0.2,0.6
		c-0.1,0.3-0.3,0.8-0.5,1.5c-0.1,0.1-0.1,0.3-0.2,0.5c0,0.1,0,0.2-0.1,0.3c0,0,0,0,0,0.1c-0.5,1.6-1.1,2.7-1.8,3.3
		c-0.4,0.3-0.8,0.6-1.3,0.8c-0.8,0.3-1.7,0.2-2.6-0.2c-0.6-0.3-1.1-0.7-1.6-1.2c-0.4-0.5-0.8-1-1-1.6c-0.1-0.3-0.3-0.9-0.5-1.6
		c-0.3-0.9-0.5-1.6-0.7-2.1c-0.1-0.3-0.2-0.7-0.4-1.4c-0.1-0.3-0.1-0.5-0.2-0.6c0-0.1,0-0.2,0-0.3c-0.2-0.7-0.4-1.2-0.5-1.4
		c0,0,0,0,0,0c0,0.2,0,0.2,0,0.4c-0.3,2.8-0.5,5-0.6,6.4c0,0.4,0,0.6-0.1,1.1c-0.2,2.3-0.4,4.1-0.5,5.2c-0.1,0.6-0.3,1.1-0.6,1.3
		c-0.2,0.1-0.5,0.2-0.8,0.3c-0.8,0.1-1.7,0.1-2.5-0.1c-0.2,0-0.4-0.1-0.6-0.1c0,0,0,0-0.1,0c-0.2-0.1-0.2-0.1-0.4-0.2h0
		c-0.2-0.1-0.4-0.2-0.5-0.4c-0.4-0.4-0.5-0.9-0.6-1.5c0,0,0,0,0,0C548.2,464.6,548.2,464.5,548.2,464.4z M561.6,490.7
		c17.3-2.9,26.2,15.5,17.3,25c-10.7,11.4-23.2,8.9-35.1,25.9C543.9,522.3,544.3,493.8,561.6,490.7z M612.1,633.1l-68.5,17.5v-73.5
		l68.5-5.2V633.1z M611.9,565.8l-68.3,5.5l10.7-25.3l74.9-6.6L611.9,565.8z"/>
</g>
</svg>
